<mxfile host="app.diagrams.net" modified="2022-05-11T09:54:38.266Z" agent="5.0 (Macintosh; Intel Mac OS X 10_15_7) AppleWebKit/605.1.15 (KHTML, like Gecko) Version/15.4 Safari/605.1.15" etag="xttZe_owSq0sHpJUxLeF" version="18.0.1" type="github">
  <diagram id="Vxue4N-R4RT3VrdIMuWQ" name="Page-1">
    <mxGraphModel dx="1129" dy="762" grid="1" gridSize="10" guides="1" tooltips="1" connect="1" arrows="1" fold="1" page="1" pageScale="1" pageWidth="850" pageHeight="1100" math="0" shadow="0">
      <root>
        <mxCell id="0" />
        <mxCell id="1" parent="0" />
        <mxCell id="zyquF97U4WCd653vqHhR-13" value="" style="rounded=0;whiteSpace=wrap;html=1;" vertex="1" parent="1">
          <mxGeometry x="275" y="420" width="230" height="200" as="geometry" />
        </mxCell>
        <mxCell id="zyquF97U4WCd653vqHhR-15" value="" style="edgeStyle=orthogonalEdgeStyle;rounded=0;orthogonalLoop=1;jettySize=auto;html=1;" edge="1" parent="1" source="zyquF97U4WCd653vqHhR-2" target="zyquF97U4WCd653vqHhR-10">
          <mxGeometry relative="1" as="geometry" />
        </mxCell>
        <mxCell id="zyquF97U4WCd653vqHhR-2" value="关联申明" style="swimlane;fontStyle=0;childLayout=stackLayout;horizontal=1;startSize=30;horizontalStack=0;resizeParent=1;resizeParentMax=0;resizeLast=0;collapsible=1;marginBottom=0;" vertex="1" parent="1">
          <mxGeometry x="320" y="20" width="140" height="120" as="geometry" />
        </mxCell>
        <mxCell id="zyquF97U4WCd653vqHhR-3" value=".animation" style="text;strokeColor=none;fillColor=none;align=left;verticalAlign=middle;spacingLeft=4;spacingRight=4;overflow=hidden;points=[[0,0.5],[1,0.5]];portConstraint=eastwest;rotatable=0;" vertex="1" parent="zyquF97U4WCd653vqHhR-2">
          <mxGeometry y="30" width="140" height="30" as="geometry" />
        </mxCell>
        <mxCell id="zyquF97U4WCd653vqHhR-4" value=".withAnimation" style="text;strokeColor=none;fillColor=none;align=left;verticalAlign=middle;spacingLeft=4;spacingRight=4;overflow=hidden;points=[[0,0.5],[1,0.5]];portConstraint=eastwest;rotatable=0;" vertex="1" parent="zyquF97U4WCd653vqHhR-2">
          <mxGeometry y="60" width="140" height="30" as="geometry" />
        </mxCell>
        <mxCell id="zyquF97U4WCd653vqHhR-5" value="Transaction" style="text;strokeColor=none;fillColor=none;align=left;verticalAlign=middle;spacingLeft=4;spacingRight=4;overflow=hidden;points=[[0,0.5],[1,0.5]];portConstraint=eastwest;rotatable=0;" vertex="1" parent="zyquF97U4WCd653vqHhR-2">
          <mxGeometry y="90" width="140" height="30" as="geometry" />
        </mxCell>
        <mxCell id="zyquF97U4WCd653vqHhR-18" style="edgeStyle=orthogonalEdgeStyle;rounded=0;orthogonalLoop=1;jettySize=auto;html=1;exitX=0.5;exitY=1;exitDx=0;exitDy=0;entryX=0;entryY=0.5;entryDx=0;entryDy=0;" edge="1" parent="1" source="zyquF97U4WCd653vqHhR-6" target="zyquF97U4WCd653vqHhR-11">
          <mxGeometry relative="1" as="geometry" />
        </mxCell>
        <mxCell id="zyquF97U4WCd653vqHhR-6" value="状态(&lt;span style=&quot;font-size: 12px; text-align: start;&quot;&gt;特定依赖项)&lt;/span&gt;" style="rounded=0;whiteSpace=wrap;html=1;fontSize=12;fontFamily=Helvetica;" vertex="1" parent="1">
          <mxGeometry x="200" y="240" width="120" height="60" as="geometry" />
        </mxCell>
        <mxCell id="zyquF97U4WCd653vqHhR-19" style="edgeStyle=orthogonalEdgeStyle;rounded=0;orthogonalLoop=1;jettySize=auto;html=1;exitX=0.5;exitY=1;exitDx=0;exitDy=0;entryX=1;entryY=0.5;entryDx=0;entryDy=0;" edge="1" parent="1" source="zyquF97U4WCd653vqHhR-7" target="zyquF97U4WCd653vqHhR-11">
          <mxGeometry relative="1" as="geometry" />
        </mxCell>
        <mxCell id="zyquF97U4WCd653vqHhR-7" value="&lt;span style=&quot;text-align: start;&quot; data-reactroot=&quot;&quot; class=&quot;notion-enable-hover&quot; data-token-index=&quot;0&quot;&gt;时序曲线算法函数&lt;br&gt;.easeInOut...&lt;br&gt;&lt;/span&gt;" style="rounded=0;whiteSpace=wrap;html=1;fontStyle=0" vertex="1" parent="1">
          <mxGeometry x="460" y="240" width="120" height="60" as="geometry" />
        </mxCell>
        <mxCell id="zyquF97U4WCd653vqHhR-8" value="变化值&lt;br&gt;AnimatableValue" style="rounded=0;whiteSpace=wrap;html=1;" vertex="1" parent="1">
          <mxGeometry x="330" y="450" width="120" height="60" as="geometry" />
        </mxCell>
        <mxCell id="zyquF97U4WCd653vqHhR-9" value="动作类型&lt;br&gt;.offset&lt;span style=&quot;white-space: pre;&quot;&gt;...&lt;/span&gt;" style="rounded=0;whiteSpace=wrap;html=1;" vertex="1" parent="1">
          <mxGeometry x="330" y="520" width="120" height="60" as="geometry" />
        </mxCell>
        <mxCell id="zyquF97U4WCd653vqHhR-16" style="edgeStyle=orthogonalEdgeStyle;rounded=0;orthogonalLoop=1;jettySize=auto;html=1;entryX=0.5;entryY=0;entryDx=0;entryDy=0;" edge="1" parent="1" source="zyquF97U4WCd653vqHhR-10" target="zyquF97U4WCd653vqHhR-6">
          <mxGeometry relative="1" as="geometry" />
        </mxCell>
        <mxCell id="zyquF97U4WCd653vqHhR-17" style="edgeStyle=orthogonalEdgeStyle;rounded=0;orthogonalLoop=1;jettySize=auto;html=1;entryX=0.5;entryY=0;entryDx=0;entryDy=0;" edge="1" parent="1" source="zyquF97U4WCd653vqHhR-10" target="zyquF97U4WCd653vqHhR-7">
          <mxGeometry relative="1" as="geometry" />
        </mxCell>
        <mxCell id="zyquF97U4WCd653vqHhR-10" value="关联" style="rhombus;whiteSpace=wrap;html=1;" vertex="1" parent="1">
          <mxGeometry x="350" y="160" width="80" height="80" as="geometry" />
        </mxCell>
        <mxCell id="zyquF97U4WCd653vqHhR-20" style="edgeStyle=orthogonalEdgeStyle;rounded=0;orthogonalLoop=1;jettySize=auto;html=1;exitX=0.5;exitY=1;exitDx=0;exitDy=0;entryX=0.5;entryY=0;entryDx=0;entryDy=0;" edge="1" parent="1" source="zyquF97U4WCd653vqHhR-11" target="zyquF97U4WCd653vqHhR-8">
          <mxGeometry relative="1" as="geometry" />
        </mxCell>
        <mxCell id="zyquF97U4WCd653vqHhR-11" value="驱动" style="rhombus;whiteSpace=wrap;html=1;" vertex="1" parent="1">
          <mxGeometry x="350" y="320" width="80" height="80" as="geometry" />
        </mxCell>
        <mxCell id="zyquF97U4WCd653vqHhR-14" value="可动画部件" style="text;html=1;strokeColor=none;fillColor=none;align=center;verticalAlign=middle;whiteSpace=wrap;rounded=0;" vertex="1" parent="1">
          <mxGeometry x="345" y="590" width="90" height="30" as="geometry" />
        </mxCell>
      </root>
    </mxGraphModel>
  </diagram>
</mxfile>
